<?xml version="1.0" encoding="UTF-8" standalone="no"?>
<!DOCTYPE svg PUBLIC "-//W3C//DTD SVG 1.1//EN" "http://www.w3.org/Graphics/SVG/1.1/DTD/svg11.dtd">
<svg xmlns="http://www.w3.org/2000/svg" version="1.1" viewBox="0 0 998 1004">
<g stroke-width="2.00" fill="none" stroke-linecap="butt">
<path stroke="#8bb783" vector-effect="non-scaling-stroke" d="
  M 352.08 477.48
  Q 351.65 478.06 351.08 478.54
  A 1.00 0.99 65.7 0 0 350.74 479.46
  Q 350.91 480.64 350.71 482.99
  Q 349.05 501.68 345.92 516.01
  Q 345.43 518.22 345.67 521.05
  Q 346.19 527.50 343.94 533.62
  C 342.43 537.74 344.06 543.33 343.07 546.50
  Q 340.30 555.45 342.06 564.58
  A 0.98 0.97 54.0 0 1 341.96 565.24
  C 340.76 567.51 341.74 569.51 340.38 571.89
  A 0.99 0.99 0.0 0 0 340.28 572.63
  Q 341.98 579.38 339.76 585.90
  A 1.01 1.01 0.0 0 0 339.98 586.91
  Q 341.69 588.72 340.80 591.28
  Q 340.02 593.54 340.42 596.02
  Q 343.51 614.76 350.30 633.71
  Q 350.99 635.65 352.62 637.21
  C 357.20 641.58 360.26 647.62 365.92 650.68
  A 0.98 0.97 -36.0 0 0 366.58 650.78
  C 369.80 650.15 371.95 649.78 375.18 651.24
  Q 378.64 652.80 382.38 653.62
  A 1.01 0.98 39.6 0 0 382.98 653.57
  C 388.11 651.39 395.81 648.88 393.37 642.35
  C 391.61 637.60 382.71 635.38 375.92 632.86
  Q 372.08 631.44 372.38 627.00
  A 1.02 1.01 30.6 0 0 372.22 626.39
  L 367.77 619.49
  Q 366.39 617.36 367.23 615.77
  Q 367.68 614.91 367.47 614.00
  Q 367.30 613.25 367.17 613.08
  Q 363.63 608.42 363.06 602.50
  Q 362.13 592.63 360.42 582.91
  Q 360.06 580.84 360.63 578.66
  C 363.47 567.93 361.09 556.38 362.77 545.46
  Q 364.19 536.22 367.18 527.29
  A 0.98 0.94 47.0 0 0 367.19 526.70
  Q 365.92 522.35 366.96 518.74
  Q 369.60 509.53 369.54 501.53
  C 369.53 499.43 370.89 497.30 371.21 495.08
  C 372.05 489.11 372.92 483.35 375.28 477.79
  A 1.00 0.97 40.8 0 0 375.20 476.86
  Q 373.73 474.57 374.22 471.99
  Q 379.23 445.94 380.55 421.16
  C 380.73 417.67 383.42 414.48 383.80 411.51
  Q 384.92 402.84 387.14 394.43
  Q 388.50 389.30 388.88 384.98
  C 389.71 375.50 391.66 366.50 387.75 356.97
  A 1.01 1.00 -12.6 0 0 386.76 356.35
  C 380.41 356.76 376.74 344.58 371.08 349.58
  Q 366.21 353.88 368.23 360.46
  A 1.01 1.00 -39.6 0 1 368.15 361.25
  Q 366.25 364.66 367.14 368.37
  A 1.00 0.98 -28.8 0 1 366.85 369.33
  Q 364.67 371.35 364.17 372.98
  C 361.42 381.96 359.69 395.67 354.44 407.74
  C 353.31 410.33 354.67 412.43 353.19 415.22
  C 347.91 425.16 345.57 436.65 341.45 447.19
  Q 340.97 448.41 341.58 450.04
  A 0.99 0.96 49.9 0 1 341.52 450.88
  C 334.88 462.52 329.96 470.80 326.20 482.05
  A 1.01 0.97 82.0 0 1 325.86 482.52
  C 320.55 486.60 319.46 494.12 315.25 499.42
  Q 313.23 501.95 312.85 505.35
  A 1.02 1.00 84.5 0 1 312.18 506.18
  C 305.70 508.42 305.17 520.01 296.18 517.08
  Q 294.67 516.59 294.11 515.49
  Q 293.58 514.46 293.64 513.17
  A 1.01 1.00 -85.0 0 0 292.77 512.13
  Q 290.74 511.87 288.88 511.13
  Q 286.98 510.38 285.63 508.28
  Q 273.15 488.93 267.19 466.62
  Q 267.14 466.44 267.02 466.28
  L 262.00 459.49
  A 1.00 1.00 0.0 0 1 261.97 458.35
  C 265.22 453.35 258.08 440.17 256.84 431.64
  C 256.37 428.46 254.49 425.71 254.00 422.50
  Q 252.97 415.85 251.75 404.41
  C 251.27 399.97 248.02 395.74 247.30 391.44
  Q 246.82 388.58 243.21 388.14
  L 233.31 386.94
  A 1.02 0.98 -59.2 0 0 232.58 387.14
  Q 229.58 389.39 225.80 388.52
  A 1.03 1.03 0.0 0 1 225.22 388.13
  L 224.60 387.29
  A 1.01 0.99 55.0 0 0 223.24 387.04
  Q 218.21 390.41 215.61 395.94
  A 1.00 1.00 0.0 0 0 215.77 397.03
  L 217.12 398.54
  A 1.03 1.02 24.9 0 1 217.37 399.21
  C 217.35 408.05 217.38 416.94 215.70 425.65
  C 214.87 429.94 216.21 433.64 215.53 437.73
  C 213.53 449.78 213.85 464.08 208.45 476.52
  A 1.00 0.99 -51.7 0 0 208.56 477.51
  Q 210.18 479.71 208.79 482.40
  A 0.99 0.96 -45.6 0 0 208.79 483.31
  Q 209.93 485.55 207.66 486.15
  A 1.00 1.00 0.0 0 0 206.92 487.21
  Q 207.18 490.17 206.10 492.87
  Q 205.17 495.20 205.07 496.78
  Q 204.43 506.04 202.34 515.10
  C 201.19 520.13 201.17 525.17 200.50 530.27
  A 1.02 1.00 88.9 0 1 199.69 531.13
  L 198.62 531.32
  A 1.01 1.01 0.0 0 0 197.80 532.32
  C 197.93 543.15 193.87 549.96 192.77 561.83
  C 192.32 566.70 190.49 571.29 190.01 575.63
  Q 189.20 582.87 188.38 590.12
  C 187.82 595.07 188.01 600.00 188.01 604.99
  A 1.01 1.00 20.9 0 0 188.35 605.74
  L 189.32 606.59
  A 1.02 1.01 24.9 0 1 189.65 607.48
  C 188.28 617.08 193.89 626.96 197.67 635.52
  A 1.01 1.01 0.0 0 0 198.52 636.11
  Q 215.08 637.26 222.58 622.73
  A 1.03 1.02 46.0 0 0 222.59 621.82
  Q 220.98 618.56 220.99 614.98
  A 1.01 1.01 0.0 0 0 220.35 614.04
  Q 217.17 612.83 217.56 609.16
  A 1.00 1.00 0.0 0 0 216.60 608.06
  L 213.06 607.91
  A 0.99 0.99 0.0 0 1 212.20 607.35
  Q 208.35 599.47 207.14 590.83
  A 1.02 1.00 -26.0 0 1 207.45 589.96
  C 210.73 586.89 210.12 580.89 210.00 576.65
  C 209.92 573.70 212.40 572.23 212.83 569.30
  Q 215.35 551.94 219.41 534.88
  C 220.72 529.41 219.64 522.49 223.91 518.27
  A 1.00 0.97 -24.3 0 0 224.20 517.53
  Q 223.93 508.81 224.97 504.74
  Q 228.72 490.06 230.09 474.97
  C 230.25 473.20 230.96 472.71 232.42 471.97
  A 0.99 0.99 0.0 0 0 232.96 471.01
  Q 232.00 457.91 235.30 445.27
  Q 235.99 442.66 236.84 445.22
  Q 239.67 453.73 242.50 462.25
  Q 243.48 465.20 243.97 472.09
  A 1.00 0.99 10.8 0 0 244.54 472.92
  C 246.47 473.83 246.35 477.27 246.23 479.20
  A 1.00 0.96 30.5 0 0 246.40 479.81
  C 250.38 485.71 251.80 489.73 252.33 496.78
  A 1.00 1.00 0.0 0 0 253.16 497.69
  L 253.52 497.75
  A 1.02 1.01 0.8 0 1 254.34 498.59
  C 256.28 511.59 264.78 522.04 272.69 533.02
  A 1.00 0.97 -11.1 0 0 273.29 533.41
  C 278.18 534.44 280.59 537.33 284.23 540.43
  Q 284.42 540.59 284.66 540.65
  Q 289.15 541.67 292.81 544.41
  Q 295.53 546.44 297.85 544.70
  Q 302.19 541.46 307.39 542.69
  A 1.02 1.01 35.1 0 0 308.17 542.56
  C 319.60 535.06 326.47 523.27 332.10 511.60
  Q 332.79 510.15 335.86 508.83
  A 1.00 0.99 77.2 0 0 336.46 507.87
  C 336.37 505.79 338.31 502.69 338.76 500.36
  A 1.01 0.95 -19.7 0 1 339.02 499.85
  C 343.19 495.53 346.02 487.68 348.24 482.11
  Q 349.41 479.20 351.69 477.13
  Q 353.60 475.40 352.08 477.48"
/>
<path stroke="#8bb783" vector-effect="non-scaling-stroke" d="
  M 701.83 540.08
  Q 701.95 540.18 702.10 540.23
  C 710.26 543.16 719.98 548.17 729.02 549.18
  C 731.91 549.51 733.98 550.70 736.46 552.00
  A 1.01 1.00 -51.8 0 0 737.59 551.86
  Q 739.13 550.50 741.82 551.18
  C 746.85 552.46 757.17 551.99 763.73 555.89
  A 0.99 0.99 0.0 0 0 764.29 556.02
  C 773.43 555.50 780.25 558.66 786.97 564.46
  A 1.02 1.01 -62.3 0 1 787.28 565.48
  L 785.48 572.24
  Q 784.76 574.93 782.66 575.71
  C 769.84 580.46 756.81 586.21 742.35 586.94
  A 1.07 1.06 57.4 0 1 741.82 586.82
  C 737.99 584.77 731.45 586.25 727.76 586.32
  A 1.00 1.00 0.0 0 0 726.85 586.94
  Q 725.68 589.76 726.01 591.76
  Q 726.80 596.44 727.25 601.22
  A 1.00 1.00 0.0 0 0 728.44 602.10
  Q 729.02 601.99 729.62 602.06
  C 731.34 602.24 734.23 605.96 735.43 607.32
  A 1.02 1.01 -20.9 0 0 736.18 607.65
  C 757.49 607.74 777.93 600.49 796.14 589.00
  Q 797.74 587.99 798.91 586.07
  Q 801.63 581.62 805.59 578.26
  A 1.02 0.99 72.1 0 0 805.95 577.53
  C 806.10 573.42 808.51 571.14 808.92 567.59
  C 811.10 548.79 792.72 539.02 777.87 534.42
  Q 774.36 533.33 769.00 533.01
  Q 757.01 532.28 745.27 529.56
  A 1.10 1.06 -46.1 0 0 744.73 529.58
  C 738.77 531.55 732.99 528.18 727.55 527.33
  C 723.36 526.67 719.34 522.65 716.47 519.72
  A 0.97 0.96 -72.4 0 1 716.20 519.19
  L 714.89 511.89
  A 1.00 0.97 56.5 0 1 715.02 511.19
  C 719.95 503.16 726.59 498.37 731.29 490.67
  A 1.00 0.98 10.0 0 1 731.97 490.20
  Q 735.27 489.64 736.46 488.46
  C 742.43 482.59 745.74 478.48 752.18 477.15
  Q 753.30 476.92 753.10 475.66
  A 0.96 0.96 0.0 0 1 753.27 474.93
  Q 754.45 473.24 756.54 473.59
  A 1.01 1.01 0.0 0 0 757.33 473.38
  L 760.19 471.12
  A 0.98 0.96 -54.7 0 1 761.11 470.95
  L 765.87 472.46
  A 1.09 1.02 -44.1 0 0 766.52 472.45
  C 771.34 470.67 774.01 464.99 776.34 460.77
  A 1.06 0.96 -36.0 0 0 776.46 460.19
  C 775.80 453.50 776.07 447.27 772.93 444.03
  A 1.09 1.07 72.2 0 0 772.36 443.73
  Q 766.21 442.77 761.23 445.68
  Q 753.98 449.92 746.76 451.49
  A 1.02 1.00 -81.7 0 0 746.10 451.99
  C 744.20 455.48 739.61 457.05 736.71 459.96
  A 1.04 1.01 -71.2 0 1 736.14 460.25
  C 727.97 461.43 725.90 470.29 718.56 473.42
  A 1.05 1.03 5.2 0 0 718.11 473.79
  Q 712.25 482.73 704.24 489.79
  C 702.07 491.70 701.59 493.78 701.17 496.43
  A 1.03 1.00 83.1 0 1 700.58 497.20
  L 696.56 498.94
  A 0.98 0.97 86.8 0 0 696.00 499.57
  Q 693.97 506.45 690.48 512.70
  A 1.06 1.05 57.9 0 0 690.35 513.28
  C 691.29 524.16 693.52 533.67 701.83 540.08"
/>
<path stroke="#8bb783" vector-effect="non-scaling-stroke" d="
  M 575.86 550.53
  Q 576.11 554.07 575.74 556.49
  Q 574.40 565.24 576.63 572.75
  A 1.00 1.00 0.0 0 1 576.38 573.74
  L 575.34 574.79
  A 1.00 0.98 -32.2 0 0 575.10 575.81
  C 579.76 589.69 584.72 608.67 601.91 609.92
  A 0.64 0.63 -87.6 0 1 602.50 610.57
  L 602.49 610.94
  A 1.00 0.99 13.6 0 0 603.05 611.85
  L 606.57 613.59
  A 0.99 0.98 -37.0 0 0 607.18 613.67
  Q 614.32 612.46 621.50 613.42
  A 1.00 0.98 33.2 0 0 622.15 613.29
  Q 631.59 607.54 641.77 603.30
  Q 643.81 602.45 645.55 600.75
  C 649.04 597.33 653.78 595.21 656.77 591.75
  C 664.89 582.33 670.64 570.00 675.92 558.78
  A 1.00 0.99 -44.7 0 0 675.93 557.94
  L 671.85 548.83
  A 1.02 1.01 70.0 0 0 670.66 548.27
  Q 667.23 549.24 663.80 548.32
  A 1.00 1.00 0.0 0 0 662.66 548.80
  C 660.95 551.91 657.36 554.45 655.26 556.72
  A 1.02 1.02 0.0 0 0 655.00 557.40
  L 655.00 562.38
  A 1.01 1.00 72.4 0 1 654.58 563.20
  C 651.60 565.30 650.23 568.77 648.39 572.86
  A 1.00 0.98 -89.0 0 1 647.88 573.36
  C 642.25 575.88 637.34 581.25 632.26 584.88
  A 1.03 1.01 29.4 0 1 631.59 585.06
  L 627.86 584.73
  A 1.01 1.01 0.0 0 0 626.99 585.09
  Q 622.91 590.17 616.50 590.24
  C 603.60 590.38 599.12 575.66 598.85 565.26
  C 598.77 562.50 599.49 559.01 599.46 555.74
  A 1.01 1.00 -0.3 0 0 598.45 554.75
  L 598.04 554.75
  A 1.00 0.99 8.9 0 1 597.09 553.45
  Q 599.35 546.31 598.89 540.18
  Q 598.44 534.15 603.32 532.86
  Q 603.58 532.79 603.77 532.61
  L 605.01 531.38
  A 1.03 1.02 -65.4 0 1 605.77 531.09
  C 614.43 531.67 622.17 529.37 630.71 529.44
  A 1.00 0.99 8.4 0 0 631.68 528.73
  L 631.89 528.03
  A 1.01 1.00 6.3 0 1 632.78 527.32
  C 641.49 526.71 648.90 523.83 661.30 519.51
  Q 664.95 518.24 671.91 518.47
  A 1.00 1.00 0.0 0 0 672.78 518.02
  C 675.92 513.21 680.72 507.32 675.95 503.17
  C 673.70 501.22 667.03 501.50 663.83 500.83
  A 1.01 0.96 -49.2 0 0 663.22 500.89
  C 656.00 504.01 647.68 503.45 639.98 504.69
  C 631.29 506.08 624.21 506.70 616.75 506.22
  Q 613.81 506.03 612.26 507.79
  A 1.00 0.98 23.6 0 1 611.40 508.12
  L 605.84 507.46
  A 1.00 0.98 87.1 0 1 604.99 506.68
  Q 602.71 496.33 604.74 485.87
  A 1.02 1.00 78.6 0 1 605.15 485.24
  Q 611.71 480.72 619.42 478.62
  C 629.18 475.95 638.65 473.52 648.04 469.70
  A 0.96 0.95 38.3 0 1 648.58 469.64
  Q 656.19 470.94 663.02 467.73
  Q 665.00 466.80 666.86 466.80
  C 676.69 466.76 686.43 466.05 696.24 466.51
  C 700.37 466.71 703.82 465.14 707.77 464.08
  A 0.98 0.97 -79.7 0 0 708.34 463.68
  L 710.11 461.09
  A 1.02 1.01 -36.8 0 0 710.24 460.21
  L 708.19 454.10
  A 1.00 1.00 0.0 0 0 707.10 453.43
  C 703.84 453.90 700.11 452.60 696.59 452.89
  Q 693.20 453.17 690.92 452.83
  C 677.48 450.84 665.00 451.65 652.01 451.76
  Q 649.56 451.78 646.23 452.66
  Q 638.53 454.69 630.64 452.84
  C 629.13 452.48 628.28 453.02 627.45 454.16
  A 1.01 1.00 -75.2 0 1 626.75 454.57
  C 616.49 455.72 609.87 458.88 600.77 464.59
  C 599.42 465.44 597.75 465.91 596.25 466.56
  A 1.04 1.02 -87.0 0 0 595.76 467.01
  L 593.94 470.53
  A 1.00 0.99 16.5 0 1 592.95 471.06
  Q 589.48 470.69 586.10 471.41
  A 0.99 0.98 -80.6 0 0 585.46 471.87
  Q 584.14 474.04 582.09 475.48
  A 1.03 1.03 0.0 0 0 581.67 476.31
  Q 581.82 490.80 582.49 505.27
  C 582.70 509.84 579.05 516.40 577.09 520.54
  C 575.22 524.49 576.10 528.11 577.77 531.83
  A 1.02 0.94 38.5 0 1 577.85 532.34
  L 577.44 536.20
  A 1.00 1.00 0.0 0 1 576.71 537.06
  Q 572.34 538.24 567.97 537.19
  A 1.02 1.00 -50.5 0 0 567.31 537.26
  Q 544.85 547.90 521.53 556.52
  A 1.00 0.99 62.2 0 1 520.38 556.16
  L 519.40 554.81
  A 1.00 1.00 0.0 0 0 518.03 554.57
  C 511.69 558.88 500.61 558.47 499.21 549.00
  C 498.21 542.30 496.17 524.57 499.40 518.88
  C 502.28 513.81 502.46 503.14 502.46 496.31
  A 1.01 0.95 -27.4 0 1 502.67 495.71
  C 508.29 488.24 503.46 477.26 506.16 469.87
  A 0.99 0.96 -49.3 0 0 506.11 469.08
  Q 502.92 462.68 503.27 455.52
  A 1.01 1.00 12.0 0 0 502.62 454.53
  C 500.04 453.57 497.59 453.62 496.03 451.08
  A 1.01 1.00 -23.2 0 0 494.92 450.64
  Q 491.46 451.55 488.18 450.15
  A 1.01 1.01 0.0 0 0 486.81 450.84
  L 486.72 451.24
  A 1.02 1.01 83.6 0 1 486.19 451.91
  C 478.96 455.44 472.82 459.74 473.32 468.77
  A 1.00 0.99 21.1 0 0 473.61 469.42
  Q 476.13 471.95 476.00 475.53
  A 1.00 1.00 0.0 0 0 476.50 476.43
  C 482.07 479.71 477.23 483.84 477.92 488.11
  C 478.56 492.08 478.44 495.84 478.73 499.82
  C 479.08 504.56 476.25 510.07 475.85 514.57
  Q 474.91 525.06 473.52 535.49
  C 472.43 543.64 473.00 556.14 477.87 562.91
  C 483.40 570.59 484.29 575.41 493.19 579.67
  A 1.03 0.99 52.3 0 0 493.79 579.76
  C 496.68 579.28 500.17 580.51 503.28 580.52
  A 1.01 1.00 -87.2 0 0 504.29 579.60
  C 504.41 577.97 505.66 577.83 507.03 578.09
  Q 518.00 580.13 527.47 574.46
  A 0.99 0.97 38.0 0 1 528.28 574.37
  L 531.24 575.30
  A 0.99 0.98 -52.4 0 0 532.07 575.19
  Q 534.29 573.79 536.11 572.02
  Q 538.02 570.14 539.86 569.27
  C 548.67 565.05 556.50 559.78 565.87 556.85
  A 1.01 1.00 -87.3 0 0 566.50 556.27
  Q 568.01 552.53 571.98 553.28
  A 1.00 1.00 0.0 0 0 573.06 552.75
  L 574.35 550.22
  Q 575.66 547.65 575.86 550.53"
/>
<path stroke="#8bb783" vector-effect="non-scaling-stroke" d="
  M 419.56 464.78
  Q 415.82 465.90 417.89 469.08
  A 1.01 0.97 37.8 0 1 418.01 469.90
  L 416.31 475.85
  A 1.09 1.00 -46.4 0 0 416.30 476.40
  C 420.57 491.70 415.93 508.87 413.50 524.10
  C 412.17 532.45 414.80 540.86 415.21 550.59
  C 415.41 555.28 422.44 563.64 425.44 567.37
  A 1.01 1.01 0.0 0 0 426.25 567.75
  Q 429.48 567.64 431.43 570.08
  A 1.01 1.00 63.8 0 0 432.45 570.43
  Q 437.71 569.13 443.19 570.03
  A 1.01 1.00 -64.1 0 0 444.10 569.71
  L 449.16 564.07
  A 1.01 1.01 0.0 0 0 449.25 562.84
  Q 444.89 556.33 442.79 548.78
  A 1.02 1.01 88.9 0 0 442.06 548.07
  Q 440.59 547.73 439.66 548.96
  Q 438.57 550.40 437.93 548.72
  Q 433.81 537.95 434.80 526.42
  C 435.94 513.17 437.45 500.00 438.39 486.74
  Q 439.10 476.79 436.64 467.22
  C 435.06 461.08 426.38 458.34 421.11 461.00
  A 1.01 1.00 -9.8 0 0 420.57 461.76
  L 420.27 463.96
  A 1.00 1.00 0.0 0 1 419.56 464.78"
/>
</g>
<path fill="#000000" fill-opacity="0.004" d="
  M 0.00 0.00
  L 998.00 0.00
  L 998.00 1004.00
  L 0.00 1004.00
  L 0.00 0.00
  Z
  M 887.94 189.58
  C 874.29 172.70 860.46 156.83 844.03 141.47
  C 808.97 108.69 774.38 83.42 732.47 60.34
  C 696.61 40.60 662.80 28.89 626.86 17.99
  C 609.94 12.87 591.77 10.23 574.30 6.99
  C 568.53 5.92 561.87 5.79 556.99 5.18
  C 548.75 4.16 540.69 3.10 532.29 2.74
  C 502.09 1.48 475.12 0.62 442.35 4.62
  C 433.67 5.68 424.88 5.71 416.51 7.43
  Q 397.52 11.32 378.58 15.41
  C 361.48 19.10 345.51 24.71 329.47 31.02
  C 315.89 36.35 301.91 41.34 289.05 47.66
  Q 268.65 57.70 248.78 68.77
  C 237.94 74.81 227.54 81.76 217.21 88.72
  C 125.25 150.72 59.19 241.89 23.75 347.22
  Q 18.88 361.67 12.05 389.13
  C 9.32 400.10 7.39 411.63 5.27 422.94
  Q 4.28 428.27 3.70 434.12
  C 2.76 443.53 1.49 453.08 1.18 462.21
  C 0.18 491.26 0.21 510.17 1.01 539.99
  Q 1.30 550.68 2.40 559.93
  C 6.56 594.88 14.19 624.61 25.25 659.49
  C 29.68 673.43 36.39 686.33 41.98 700.56
  Q 47.74 715.23 52.32 723.46
  C 66.99 749.83 80.60 773.96 99.78 799.72
  Q 115.30 820.58 120.43 826.32
  Q 142.27 850.77 147.68 855.81
  C 165.15 872.08 183.39 888.53 203.03 902.13
  C 216.21 911.27 229.29 920.94 242.83 929.18
  Q 258.27 938.57 262.30 940.47
  C 271.66 944.87 280.83 950.61 289.83 954.51
  C 318.42 966.90 340.97 976.68 369.26 983.45
  C 391.19 988.69 410.71 993.18 431.65 996.17
  C 443.77 997.89 456.26 1000.51 468.48 1000.65
  C 502.43 1001.03 529.75 1001.85 560.35 996.87
  C 569.54 995.38 581.59 994.19 592.03 991.78
  C 614.55 986.58 637.05 981.70 654.69 975.68
  Q 676.64 968.19 710.31 953.15
  Q 718.65 949.42 727.88 944.14
  C 739.42 937.54 751.91 931.01 762.43 924.39
  Q 801.93 899.54 831.94 872.69
  C 857.50 849.81 876.87 828.21 897.90 801.17
  C 921.64 770.65 937.42 740.31 953.37 707.59
  C 956.33 701.52 958.57 694.12 960.73 688.92
  Q 970.41 665.63 973.48 656.24
  C 982.67 628.18 989.50 597.21 994.24 565.28
  C 996.03 553.28 995.88 538.65 996.93 525.33
  C 998.78 502.05 996.80 478.42 995.44 455.16
  C 994.46 438.40 992.31 423.32 988.94 407.52
  C 984.75 387.90 977.88 359.85 970.09 338.68
  C 960.67 313.05 950.51 287.94 937.34 263.93
  Q 933.54 257.01 920.87 236.11
  C 912.42 222.20 902.93 209.37 893.29 196.46
  Q 890.68 192.97 887.94 189.58
  Z"
/>
<path fill="#c9efc7" d="
  M 887.94 189.58
  Q 890.68 192.97 893.29 196.46
  C 902.93 209.37 912.42 222.20 920.87 236.11
  Q 933.54 257.01 937.34 263.93
  C 950.51 287.94 960.67 313.05 970.09 338.68
  C 977.88 359.85 984.75 387.90 988.94 407.52
  C 992.31 423.32 994.46 438.40 995.44 455.16
  C 996.80 478.42 998.78 502.05 996.93 525.33
  C 995.88 538.65 996.03 553.28 994.24 565.28
  C 989.50 597.21 982.67 628.18 973.48 656.24
  Q 970.41 665.63 960.73 688.92
  C 958.57 694.12 956.33 701.52 953.37 707.59
  C 937.42 740.31 921.64 770.65 897.90 801.17
  C 876.87 828.21 857.50 849.81 831.94 872.69
  Q 801.93 899.54 762.43 924.39
  C 751.91 931.01 739.42 937.54 727.88 944.14
  Q 718.65 949.42 710.31 953.15
  Q 676.64 968.19 654.69 975.68
  C 637.05 981.70 614.55 986.58 592.03 991.78
  C 581.59 994.19 569.54 995.38 560.35 996.87
  C 529.75 1001.85 502.43 1001.03 468.48 1000.65
  C 456.26 1000.51 443.77 997.89 431.65 996.17
  C 410.71 993.18 391.19 988.69 369.26 983.45
  C 340.97 976.68 318.42 966.90 289.83 954.51
  C 280.83 950.61 271.66 944.87 262.30 940.47
  Q 258.27 938.57 242.83 929.18
  C 229.29 920.94 216.21 911.27 203.03 902.13
  C 183.39 888.53 165.15 872.08 147.68 855.81
  Q 142.27 850.77 120.43 826.32
  Q 115.30 820.58 99.78 799.72
  C 80.60 773.96 66.99 749.83 52.32 723.46
  Q 47.74 715.23 41.98 700.56
  C 36.39 686.33 29.68 673.43 25.25 659.49
  C 14.19 624.61 6.56 594.88 2.40 559.93
  Q 1.30 550.68 1.01 539.99
  C 0.21 510.17 0.18 491.26 1.18 462.21
  C 1.49 453.08 2.76 443.53 3.70 434.12
  Q 4.28 428.27 5.27 422.94
  C 7.39 411.63 9.32 400.10 12.05 389.13
  Q 18.88 361.67 23.75 347.22
  C 59.19 241.89 125.25 150.72 217.21 88.72
  C 227.54 81.76 237.94 74.81 248.78 68.77
  Q 268.65 57.70 289.05 47.66
  C 301.91 41.34 315.89 36.35 329.47 31.02
  C 345.51 24.71 361.48 19.10 378.58 15.41
  Q 397.52 11.32 416.51 7.43
  C 424.88 5.71 433.67 5.68 442.35 4.62
  C 475.12 0.62 502.09 1.48 532.29 2.74
  C 540.69 3.10 548.75 4.16 556.99 5.18
  C 561.87 5.79 568.53 5.92 574.30 6.99
  C 591.77 10.23 609.94 12.87 626.86 17.99
  C 662.80 28.89 696.61 40.60 732.47 60.34
  C 774.38 83.42 808.97 108.69 844.03 141.47
  C 860.46 156.83 874.29 172.70 887.94 189.58
  Z
  M 352.08 477.48
  Q 351.65 478.06 351.08 478.54
  A 1.00 0.99 65.7 0 0 350.74 479.46
  Q 350.91 480.64 350.71 482.99
  Q 349.05 501.68 345.92 516.01
  Q 345.43 518.22 345.67 521.05
  Q 346.19 527.50 343.94 533.62
  C 342.43 537.74 344.06 543.33 343.07 546.50
  Q 340.30 555.45 342.06 564.58
  A 0.98 0.97 54.0 0 1 341.96 565.24
  C 340.76 567.51 341.74 569.51 340.38 571.89
  A 0.99 0.99 0.0 0 0 340.28 572.63
  Q 341.98 579.38 339.76 585.90
  A 1.01 1.01 0.0 0 0 339.98 586.91
  Q 341.69 588.72 340.80 591.28
  Q 340.02 593.54 340.42 596.02
  Q 343.51 614.76 350.30 633.71
  Q 350.99 635.65 352.62 637.21
  C 357.20 641.58 360.26 647.62 365.92 650.68
  A 0.98 0.97 -36.0 0 0 366.58 650.78
  C 369.80 650.15 371.95 649.78 375.18 651.24
  Q 378.64 652.80 382.38 653.62
  A 1.01 0.98 39.6 0 0 382.98 653.57
  C 388.11 651.39 395.81 648.88 393.37 642.35
  C 391.61 637.60 382.71 635.38 375.92 632.86
  Q 372.08 631.44 372.38 627.00
  A 1.02 1.01 30.6 0 0 372.22 626.39
  L 367.77 619.49
  Q 366.39 617.36 367.23 615.77
  Q 367.68 614.91 367.47 614.00
  Q 367.30 613.25 367.17 613.08
  Q 363.63 608.42 363.06 602.50
  Q 362.13 592.63 360.42 582.91
  Q 360.06 580.84 360.63 578.66
  C 363.47 567.93 361.09 556.38 362.77 545.46
  Q 364.19 536.22 367.18 527.29
  A 0.98 0.94 47.0 0 0 367.19 526.70
  Q 365.92 522.35 366.96 518.74
  Q 369.60 509.53 369.54 501.53
  C 369.53 499.43 370.89 497.30 371.21 495.08
  C 372.05 489.11 372.92 483.35 375.28 477.79
  A 1.00 0.97 40.8 0 0 375.20 476.86
  Q 373.73 474.57 374.22 471.99
  Q 379.23 445.94 380.55 421.16
  C 380.73 417.67 383.42 414.48 383.80 411.51
  Q 384.92 402.84 387.14 394.43
  Q 388.50 389.30 388.88 384.98
  C 389.71 375.50 391.66 366.50 387.75 356.97
  A 1.01 1.00 -12.6 0 0 386.76 356.35
  C 380.41 356.76 376.74 344.58 371.08 349.58
  Q 366.21 353.88 368.23 360.46
  A 1.01 1.00 -39.6 0 1 368.15 361.25
  Q 366.25 364.66 367.14 368.37
  A 1.00 0.98 -28.8 0 1 366.85 369.33
  Q 364.67 371.35 364.17 372.98
  C 361.42 381.96 359.69 395.67 354.44 407.74
  C 353.31 410.33 354.67 412.43 353.19 415.22
  C 347.91 425.16 345.57 436.65 341.45 447.19
  Q 340.97 448.41 341.58 450.04
  A 0.99 0.96 49.9 0 1 341.52 450.88
  C 334.88 462.52 329.96 470.80 326.20 482.05
  A 1.01 0.97 82.0 0 1 325.86 482.52
  C 320.55 486.60 319.46 494.12 315.25 499.42
  Q 313.23 501.95 312.85 505.35
  A 1.02 1.00 84.5 0 1 312.18 506.18
  C 305.70 508.42 305.17 520.01 296.18 517.08
  Q 294.67 516.59 294.11 515.49
  Q 293.58 514.46 293.64 513.17
  A 1.01 1.00 -85.0 0 0 292.77 512.13
  Q 290.74 511.87 288.88 511.13
  Q 286.98 510.38 285.63 508.28
  Q 273.15 488.93 267.19 466.62
  Q 267.14 466.44 267.02 466.28
  L 262.00 459.49
  A 1.00 1.00 0.0 0 1 261.97 458.35
  C 265.22 453.35 258.08 440.17 256.84 431.64
  C 256.37 428.46 254.49 425.71 254.00 422.50
  Q 252.97 415.85 251.75 404.41
  C 251.27 399.97 248.02 395.74 247.30 391.44
  Q 246.82 388.58 243.21 388.14
  L 233.31 386.94
  A 1.02 0.98 -59.2 0 0 232.58 387.14
  Q 229.58 389.39 225.80 388.52
  A 1.03 1.03 0.0 0 1 225.22 388.13
  L 224.60 387.29
  A 1.01 0.99 55.0 0 0 223.24 387.04
  Q 218.21 390.41 215.61 395.94
  A 1.00 1.00 0.0 0 0 215.77 397.03
  L 217.12 398.54
  A 1.03 1.02 24.9 0 1 217.37 399.21
  C 217.35 408.05 217.38 416.94 215.70 425.65
  C 214.87 429.94 216.21 433.64 215.53 437.73
  C 213.53 449.78 213.85 464.08 208.45 476.52
  A 1.00 0.99 -51.7 0 0 208.56 477.51
  Q 210.18 479.71 208.79 482.40
  A 0.99 0.96 -45.6 0 0 208.79 483.31
  Q 209.93 485.55 207.66 486.15
  A 1.00 1.00 0.0 0 0 206.92 487.21
  Q 207.18 490.17 206.10 492.87
  Q 205.17 495.20 205.07 496.78
  Q 204.43 506.04 202.34 515.10
  C 201.19 520.13 201.17 525.17 200.50 530.27
  A 1.02 1.00 88.9 0 1 199.69 531.13
  L 198.62 531.32
  A 1.01 1.01 0.0 0 0 197.80 532.32
  C 197.93 543.15 193.87 549.96 192.77 561.83
  C 192.32 566.70 190.49 571.29 190.01 575.63
  Q 189.20 582.87 188.38 590.12
  C 187.82 595.07 188.01 600.00 188.01 604.99
  A 1.01 1.00 20.9 0 0 188.35 605.74
  L 189.32 606.59
  A 1.02 1.01 24.9 0 1 189.65 607.48
  C 188.28 617.08 193.89 626.96 197.67 635.52
  A 1.01 1.01 0.0 0 0 198.52 636.11
  Q 215.08 637.26 222.58 622.73
  A 1.03 1.02 46.0 0 0 222.59 621.82
  Q 220.98 618.56 220.99 614.98
  A 1.01 1.01 0.0 0 0 220.35 614.04
  Q 217.17 612.83 217.56 609.16
  A 1.00 1.00 0.0 0 0 216.60 608.06
  L 213.06 607.91
  A 0.99 0.99 0.0 0 1 212.20 607.35
  Q 208.35 599.47 207.14 590.83
  A 1.02 1.00 -26.0 0 1 207.45 589.96
  C 210.73 586.89 210.12 580.89 210.00 576.65
  C 209.92 573.70 212.40 572.23 212.83 569.30
  Q 215.35 551.94 219.41 534.88
  C 220.72 529.41 219.64 522.49 223.91 518.27
  A 1.00 0.97 -24.3 0 0 224.20 517.53
  Q 223.93 508.81 224.97 504.74
  Q 228.72 490.06 230.09 474.97
  C 230.25 473.20 230.96 472.71 232.42 471.97
  A 0.99 0.99 0.0 0 0 232.96 471.01
  Q 232.00 457.91 235.30 445.27
  Q 235.99 442.66 236.84 445.22
  Q 239.67 453.73 242.50 462.25
  Q 243.48 465.20 243.97 472.09
  A 1.00 0.99 10.8 0 0 244.54 472.92
  C 246.47 473.83 246.35 477.27 246.23 479.20
  A 1.00 0.96 30.5 0 0 246.40 479.81
  C 250.38 485.71 251.80 489.73 252.33 496.78
  A 1.00 1.00 0.0 0 0 253.16 497.69
  L 253.52 497.75
  A 1.02 1.01 0.8 0 1 254.34 498.59
  C 256.28 511.59 264.78 522.04 272.69 533.02
  A 1.00 0.97 -11.1 0 0 273.29 533.41
  C 278.18 534.44 280.59 537.33 284.23 540.43
  Q 284.42 540.59 284.66 540.65
  Q 289.15 541.67 292.81 544.41
  Q 295.53 546.44 297.85 544.70
  Q 302.19 541.46 307.39 542.69
  A 1.02 1.01 35.1 0 0 308.17 542.56
  C 319.60 535.06 326.47 523.27 332.10 511.60
  Q 332.79 510.15 335.86 508.83
  A 1.00 0.99 77.2 0 0 336.46 507.87
  C 336.37 505.79 338.31 502.69 338.76 500.36
  A 1.01 0.95 -19.7 0 1 339.02 499.85
  C 343.19 495.53 346.02 487.68 348.24 482.11
  Q 349.41 479.20 351.69 477.13
  Q 353.60 475.40 352.08 477.48
  Z
  M 701.83 540.08
  Q 701.95 540.18 702.10 540.23
  C 710.26 543.16 719.98 548.17 729.02 549.18
  C 731.91 549.51 733.98 550.70 736.46 552.00
  A 1.01 1.00 -51.8 0 0 737.59 551.86
  Q 739.13 550.50 741.82 551.18
  C 746.85 552.46 757.17 551.99 763.73 555.89
  A 0.99 0.99 0.0 0 0 764.29 556.02
  C 773.43 555.50 780.25 558.66 786.97 564.46
  A 1.02 1.01 -62.3 0 1 787.28 565.48
  L 785.48 572.24
  Q 784.76 574.93 782.66 575.71
  C 769.84 580.46 756.81 586.21 742.35 586.94
  A 1.07 1.06 57.4 0 1 741.82 586.82
  C 737.99 584.77 731.45 586.25 727.76 586.32
  A 1.00 1.00 0.0 0 0 726.85 586.94
  Q 725.68 589.76 726.01 591.76
  Q 726.80 596.44 727.25 601.22
  A 1.00 1.00 0.0 0 0 728.44 602.10
  Q 729.02 601.99 729.62 602.06
  C 731.34 602.24 734.23 605.96 735.43 607.32
  A 1.02 1.01 -20.9 0 0 736.18 607.65
  C 757.49 607.74 777.93 600.49 796.14 589.00
  Q 797.74 587.99 798.91 586.07
  Q 801.63 581.62 805.59 578.26
  A 1.02 0.99 72.1 0 0 805.95 577.53
  C 806.10 573.42 808.51 571.14 808.92 567.59
  C 811.10 548.79 792.72 539.02 777.87 534.42
  Q 774.36 533.33 769.00 533.01
  Q 757.01 532.28 745.27 529.56
  A 1.10 1.06 -46.1 0 0 744.73 529.58
  C 738.77 531.55 732.99 528.18 727.55 527.33
  C 723.36 526.67 719.34 522.65 716.47 519.72
  A 0.97 0.96 -72.4 0 1 716.20 519.19
  L 714.89 511.89
  A 1.00 0.97 56.5 0 1 715.02 511.19
  C 719.95 503.16 726.59 498.37 731.29 490.67
  A 1.00 0.98 10.0 0 1 731.97 490.20
  Q 735.27 489.64 736.46 488.46
  C 742.43 482.59 745.74 478.48 752.18 477.15
  Q 753.30 476.92 753.10 475.66
  A 0.96 0.96 0.0 0 1 753.27 474.93
  Q 754.45 473.24 756.54 473.59
  A 1.01 1.01 0.0 0 0 757.33 473.38
  L 760.19 471.12
  A 0.98 0.96 -54.7 0 1 761.11 470.95
  L 765.87 472.46
  A 1.09 1.02 -44.1 0 0 766.52 472.45
  C 771.34 470.67 774.01 464.99 776.34 460.77
  A 1.06 0.96 -36.0 0 0 776.46 460.19
  C 775.80 453.50 776.07 447.27 772.93 444.03
  A 1.09 1.07 72.2 0 0 772.36 443.73
  Q 766.21 442.77 761.23 445.68
  Q 753.98 449.92 746.76 451.49
  A 1.02 1.00 -81.7 0 0 746.10 451.99
  C 744.20 455.48 739.61 457.05 736.71 459.96
  A 1.04 1.01 -71.2 0 1 736.14 460.25
  C 727.97 461.43 725.90 470.29 718.56 473.42
  A 1.05 1.03 5.2 0 0 718.11 473.79
  Q 712.25 482.73 704.24 489.79
  C 702.07 491.70 701.59 493.78 701.17 496.43
  A 1.03 1.00 83.1 0 1 700.58 497.20
  L 696.56 498.94
  A 0.98 0.97 86.8 0 0 696.00 499.57
  Q 693.97 506.45 690.48 512.70
  A 1.06 1.05 57.9 0 0 690.35 513.28
  C 691.29 524.16 693.52 533.67 701.83 540.08
  Z
  M 575.86 550.53
  Q 576.11 554.07 575.74 556.49
  Q 574.40 565.24 576.63 572.75
  A 1.00 1.00 0.0 0 1 576.38 573.74
  L 575.34 574.79
  A 1.00 0.98 -32.2 0 0 575.10 575.81
  C 579.76 589.69 584.72 608.67 601.91 609.92
  A 0.64 0.63 -87.6 0 1 602.50 610.57
  L 602.49 610.94
  A 1.00 0.99 13.6 0 0 603.05 611.85
  L 606.57 613.59
  A 0.99 0.98 -37.0 0 0 607.18 613.67
  Q 614.32 612.46 621.50 613.42
  A 1.00 0.98 33.2 0 0 622.15 613.29
  Q 631.59 607.54 641.77 603.30
  Q 643.81 602.45 645.55 600.75
  C 649.04 597.33 653.78 595.21 656.77 591.75
  C 664.89 582.33 670.64 570.00 675.92 558.78
  A 1.00 0.99 -44.7 0 0 675.93 557.94
  L 671.85 548.83
  A 1.02 1.01 70.0 0 0 670.66 548.27
  Q 667.23 549.24 663.80 548.32
  A 1.00 1.00 0.0 0 0 662.66 548.80
  C 660.95 551.91 657.36 554.45 655.26 556.72
  A 1.02 1.02 0.0 0 0 655.00 557.40
  L 655.00 562.38
  A 1.01 1.00 72.4 0 1 654.58 563.20
  C 651.60 565.30 650.23 568.77 648.39 572.86
  A 1.00 0.98 -89.0 0 1 647.88 573.36
  C 642.25 575.88 637.34 581.25 632.26 584.88
  A 1.03 1.01 29.4 0 1 631.59 585.06
  L 627.86 584.73
  A 1.01 1.01 0.0 0 0 626.99 585.09
  Q 622.91 590.17 616.50 590.24
  C 603.60 590.38 599.12 575.66 598.85 565.26
  C 598.77 562.50 599.49 559.01 599.46 555.74
  A 1.01 1.00 -0.3 0 0 598.45 554.75
  L 598.04 554.75
  A 1.00 0.99 8.9 0 1 597.09 553.45
  Q 599.35 546.31 598.89 540.18
  Q 598.44 534.15 603.32 532.86
  Q 603.58 532.79 603.77 532.61
  L 605.01 531.38
  A 1.03 1.02 -65.4 0 1 605.77 531.09
  C 614.43 531.67 622.17 529.37 630.71 529.44
  A 1.00 0.99 8.4 0 0 631.68 528.73
  L 631.89 528.03
  A 1.01 1.00 6.3 0 1 632.78 527.32
  C 641.49 526.71 648.90 523.83 661.30 519.51
  Q 664.95 518.24 671.91 518.47
  A 1.00 1.00 0.0 0 0 672.78 518.02
  C 675.92 513.21 680.72 507.32 675.95 503.17
  C 673.70 501.22 667.03 501.50 663.83 500.83
  A 1.01 0.96 -49.2 0 0 663.22 500.89
  C 656.00 504.01 647.68 503.45 639.98 504.69
  C 631.29 506.08 624.21 506.70 616.75 506.22
  Q 613.81 506.03 612.26 507.79
  A 1.00 0.98 23.6 0 1 611.40 508.12
  L 605.84 507.46
  A 1.00 0.98 87.1 0 1 604.99 506.68
  Q 602.71 496.33 604.74 485.87
  A 1.02 1.00 78.6 0 1 605.15 485.24
  Q 611.71 480.72 619.42 478.62
  C 629.18 475.95 638.65 473.52 648.04 469.70
  A 0.96 0.95 38.3 0 1 648.58 469.64
  Q 656.19 470.94 663.02 467.73
  Q 665.00 466.80 666.86 466.80
  C 676.69 466.76 686.43 466.05 696.24 466.51
  C 700.37 466.71 703.82 465.14 707.77 464.08
  A 0.98 0.97 -79.7 0 0 708.34 463.68
  L 710.11 461.09
  A 1.02 1.01 -36.8 0 0 710.24 460.21
  L 708.19 454.10
  A 1.00 1.00 0.0 0 0 707.10 453.43
  C 703.84 453.90 700.11 452.60 696.59 452.89
  Q 693.20 453.17 690.92 452.83
  C 677.48 450.84 665.00 451.65 652.01 451.76
  Q 649.56 451.78 646.23 452.66
  Q 638.53 454.69 630.64 452.84
  C 629.13 452.48 628.28 453.02 627.45 454.16
  A 1.01 1.00 -75.2 0 1 626.75 454.57
  C 616.49 455.72 609.87 458.88 600.77 464.59
  C 599.42 465.44 597.75 465.91 596.25 466.56
  A 1.04 1.02 -87.0 0 0 595.76 467.01
  L 593.94 470.53
  A 1.00 0.99 16.5 0 1 592.95 471.06
  Q 589.48 470.69 586.10 471.41
  A 0.99 0.98 -80.6 0 0 585.46 471.87
  Q 584.14 474.04 582.09 475.48
  A 1.03 1.03 0.0 0 0 581.67 476.31
  Q 581.82 490.80 582.49 505.27
  C 582.70 509.84 579.05 516.40 577.09 520.54
  C 575.22 524.49 576.10 528.11 577.77 531.83
  A 1.02 0.94 38.5 0 1 577.85 532.34
  L 577.44 536.20
  A 1.00 1.00 0.0 0 1 576.71 537.06
  Q 572.34 538.24 567.97 537.19
  A 1.02 1.00 -50.5 0 0 567.31 537.26
  Q 544.85 547.90 521.53 556.52
  A 1.00 0.99 62.2 0 1 520.38 556.16
  L 519.40 554.81
  A 1.00 1.00 0.0 0 0 518.03 554.57
  C 511.69 558.88 500.61 558.47 499.21 549.00
  C 498.21 542.30 496.17 524.57 499.40 518.88
  C 502.28 513.81 502.46 503.14 502.46 496.31
  A 1.01 0.95 -27.4 0 1 502.67 495.71
  C 508.29 488.24 503.46 477.26 506.16 469.87
  A 0.99 0.96 -49.3 0 0 506.11 469.08
  Q 502.92 462.68 503.27 455.52
  A 1.01 1.00 12.0 0 0 502.62 454.53
  C 500.04 453.57 497.59 453.62 496.03 451.08
  A 1.01 1.00 -23.2 0 0 494.92 450.64
  Q 491.46 451.55 488.18 450.15
  A 1.01 1.01 0.0 0 0 486.81 450.84
  L 486.72 451.24
  A 1.02 1.01 83.6 0 1 486.19 451.91
  C 478.96 455.44 472.82 459.74 473.32 468.77
  A 1.00 0.99 21.1 0 0 473.61 469.42
  Q 476.13 471.95 476.00 475.53
  A 1.00 1.00 0.0 0 0 476.50 476.43
  C 482.07 479.71 477.23 483.84 477.92 488.11
  C 478.56 492.08 478.44 495.84 478.73 499.82
  C 479.08 504.56 476.25 510.07 475.85 514.57
  Q 474.91 525.06 473.52 535.49
  C 472.43 543.64 473.00 556.14 477.87 562.91
  C 483.40 570.59 484.29 575.41 493.19 579.67
  A 1.03 0.99 52.3 0 0 493.79 579.76
  C 496.68 579.28 500.17 580.51 503.28 580.52
  A 1.01 1.00 -87.2 0 0 504.29 579.60
  C 504.41 577.97 505.66 577.83 507.03 578.09
  Q 518.00 580.13 527.47 574.46
  A 0.99 0.97 38.0 0 1 528.28 574.37
  L 531.24 575.30
  A 0.99 0.98 -52.4 0 0 532.07 575.19
  Q 534.29 573.79 536.11 572.02
  Q 538.02 570.14 539.86 569.27
  C 548.67 565.05 556.50 559.78 565.87 556.85
  A 1.01 1.00 -87.3 0 0 566.50 556.27
  Q 568.01 552.53 571.98 553.28
  A 1.00 1.00 0.0 0 0 573.06 552.75
  L 574.35 550.22
  Q 575.66 547.65 575.86 550.53
  Z
  M 419.56 464.78
  Q 415.82 465.90 417.89 469.08
  A 1.01 0.97 37.8 0 1 418.01 469.90
  L 416.31 475.85
  A 1.09 1.00 -46.4 0 0 416.30 476.40
  C 420.57 491.70 415.93 508.87 413.50 524.10
  C 412.17 532.45 414.80 540.86 415.21 550.59
  C 415.41 555.28 422.44 563.64 425.44 567.37
  A 1.01 1.01 0.0 0 0 426.25 567.75
  Q 429.48 567.64 431.43 570.08
  A 1.01 1.00 63.8 0 0 432.45 570.43
  Q 437.71 569.13 443.19 570.03
  A 1.01 1.00 -64.1 0 0 444.10 569.71
  L 449.16 564.07
  A 1.01 1.01 0.0 0 0 449.25 562.84
  Q 444.89 556.33 442.79 548.78
  A 1.02 1.01 88.9 0 0 442.06 548.07
  Q 440.59 547.73 439.66 548.96
  Q 438.57 550.40 437.93 548.72
  Q 433.81 537.95 434.80 526.42
  C 435.94 513.17 437.45 500.00 438.39 486.74
  Q 439.10 476.79 436.64 467.22
  C 435.06 461.08 426.38 458.34 421.11 461.00
  A 1.01 1.00 -9.8 0 0 420.57 461.76
  L 420.27 463.96
  A 1.00 1.00 0.0 0 1 419.56 464.78
  Z"
/>
<path fill="#4d7e3e" d="
  M 351.69 477.13
  Q 349.41 479.20 348.24 482.11
  C 346.02 487.68 343.19 495.53 339.02 499.85
  A 1.01 0.95 -19.7 0 0 338.76 500.36
  C 338.31 502.69 336.37 505.79 336.46 507.87
  A 1.00 0.99 77.2 0 1 335.86 508.83
  Q 332.79 510.15 332.10 511.60
  C 326.47 523.27 319.60 535.06 308.17 542.56
  A 1.02 1.01 35.1 0 1 307.39 542.69
  Q 302.19 541.46 297.85 544.70
  Q 295.53 546.44 292.81 544.41
  Q 289.15 541.67 284.66 540.65
  Q 284.42 540.59 284.23 540.43
  C 280.59 537.33 278.18 534.44 273.29 533.41
  A 1.00 0.97 -11.1 0 1 272.69 533.02
  C 264.78 522.04 256.28 511.59 254.34 498.59
  A 1.02 1.01 0.8 0 0 253.52 497.75
  L 253.16 497.69
  A 1.00 1.00 0.0 0 1 252.33 496.78
  C 251.80 489.73 250.38 485.71 246.40 479.81
  A 1.00 0.96 30.5 0 1 246.23 479.20
  C 246.35 477.27 246.47 473.83 244.54 472.92
  A 1.00 0.99 10.8 0 1 243.97 472.09
  Q 243.48 465.20 242.50 462.25
  Q 239.67 453.73 236.84 445.22
  Q 235.99 442.66 235.30 445.27
  Q 232.00 457.91 232.96 471.01
  A 0.99 0.99 0.0 0 1 232.42 471.97
  C 230.96 472.71 230.25 473.20 230.09 474.97
  Q 228.72 490.06 224.97 504.74
  Q 223.93 508.81 224.20 517.53
  A 1.00 0.97 -24.3 0 1 223.91 518.27
  C 219.64 522.49 220.72 529.41 219.41 534.88
  Q 215.35 551.94 212.83 569.30
  C 212.40 572.23 209.92 573.70 210.00 576.65
  C 210.12 580.89 210.73 586.89 207.45 589.96
  A 1.02 1.00 -26.0 0 0 207.14 590.83
  Q 208.35 599.47 212.20 607.35
  A 0.99 0.99 0.0 0 0 213.06 607.91
  L 216.60 608.06
  A 1.00 1.00 0.0 0 1 217.56 609.16
  Q 217.17 612.83 220.35 614.04
  A 1.01 1.01 0.0 0 1 220.99 614.98
  Q 220.98 618.56 222.59 621.82
  A 1.03 1.02 46.0 0 1 222.58 622.73
  Q 215.08 637.26 198.52 636.11
  A 1.01 1.01 0.0 0 1 197.67 635.52
  C 193.89 626.96 188.28 617.08 189.65 607.48
  A 1.02 1.01 24.9 0 0 189.32 606.59
  L 188.35 605.74
  A 1.01 1.00 20.9 0 1 188.01 604.99
  C 188.01 600.00 187.82 595.07 188.38 590.12
  Q 189.20 582.87 190.01 575.63
  C 190.49 571.29 192.32 566.70 192.77 561.83
  C 193.87 549.96 197.93 543.15 197.80 532.32
  A 1.01 1.01 0.0 0 1 198.62 531.32
  L 199.69 531.13
  A 1.02 1.00 88.9 0 0 200.50 530.27
  C 201.17 525.17 201.19 520.13 202.34 515.10
  Q 204.43 506.04 205.07 496.78
  Q 205.17 495.20 206.10 492.87
  Q 207.18 490.17 206.92 487.21
  A 1.00 1.00 0.0 0 1 207.66 486.15
  Q 209.93 485.55 208.79 483.31
  A 0.99 0.96 -45.6 0 1 208.79 482.40
  Q 210.18 479.71 208.56 477.51
  A 1.00 0.99 -51.7 0 1 208.45 476.52
  C 213.85 464.08 213.53 449.78 215.53 437.73
  C 216.21 433.64 214.87 429.94 215.70 425.65
  C 217.38 416.94 217.35 408.05 217.37 399.21
  A 1.03 1.02 24.9 0 0 217.12 398.54
  L 215.77 397.03
  A 1.00 1.00 0.0 0 1 215.61 395.94
  Q 218.21 390.41 223.24 387.04
  A 1.01 0.99 55.0 0 1 224.60 387.29
  L 225.22 388.13
  A 1.03 1.03 0.0 0 0 225.80 388.52
  Q 229.58 389.39 232.58 387.14
  A 1.02 0.98 -59.2 0 1 233.31 386.94
  L 243.21 388.14
  Q 246.82 388.58 247.30 391.44
  C 248.02 395.74 251.27 399.97 251.75 404.41
  Q 252.97 415.85 254.00 422.50
  C 254.49 425.71 256.37 428.46 256.84 431.64
  C 258.08 440.17 265.22 453.35 261.97 458.35
  A 1.00 1.00 0.0 0 0 262.00 459.49
  L 267.02 466.28
  Q 267.14 466.44 267.19 466.62
  Q 273.15 488.93 285.63 508.28
  Q 286.98 510.38 288.88 511.13
  Q 290.74 511.87 292.77 512.13
  A 1.01 1.00 -85.0 0 1 293.64 513.17
  Q 293.58 514.46 294.11 515.49
  Q 294.67 516.59 296.18 517.08
  C 305.17 520.01 305.70 508.42 312.18 506.18
  A 1.02 1.00 84.5 0 0 312.85 505.35
  Q 313.23 501.95 315.25 499.42
  C 319.46 494.12 320.55 486.60 325.86 482.52
  A 1.01 0.97 82.0 0 0 326.20 482.05
  C 329.96 470.80 334.88 462.52 341.52 450.88
  A 0.99 0.96 49.9 0 0 341.58 450.04
  Q 340.97 448.41 341.45 447.19
  C 345.57 436.65 347.91 425.16 353.19 415.22
  C 354.67 412.43 353.31 410.33 354.44 407.74
  C 359.69 395.67 361.42 381.96 364.17 372.98
  Q 364.67 371.35 366.85 369.33
  A 1.00 0.98 -28.8 0 0 367.14 368.37
  Q 366.25 364.66 368.15 361.25
  A 1.01 1.00 -39.6 0 0 368.23 360.46
  Q 366.21 353.88 371.08 349.58
  C 376.74 344.58 380.41 356.76 386.76 356.35
  A 1.01 1.00 -12.6 0 1 387.75 356.97
  C 391.66 366.50 389.71 375.50 388.88 384.98
  Q 388.50 389.30 387.14 394.43
  Q 384.92 402.84 383.80 411.51
  C 383.42 414.48 380.73 417.67 380.55 421.16
  Q 379.23 445.94 374.22 471.99
  Q 373.73 474.57 375.20 476.86
  A 1.00 0.97 40.8 0 1 375.28 477.79
  C 372.92 483.35 372.05 489.11 371.21 495.08
  C 370.89 497.30 369.53 499.43 369.54 501.53
  Q 369.60 509.53 366.96 518.74
  Q 365.92 522.35 367.19 526.70
  A 0.98 0.94 47.0 0 1 367.18 527.29
  Q 364.19 536.22 362.77 545.46
  C 361.09 556.38 363.47 567.93 360.63 578.66
  Q 360.06 580.84 360.42 582.91
  Q 362.13 592.63 363.06 602.50
  Q 363.63 608.42 367.17 613.08
  Q 367.30 613.25 367.47 614.00
  Q 367.68 614.91 367.23 615.77
  Q 366.39 617.36 367.77 619.49
  L 372.22 626.39
  A 1.02 1.01 30.6 0 1 372.38 627.00
  Q 372.08 631.44 375.92 632.86
  C 382.71 635.38 391.61 637.60 393.37 642.35
  C 395.81 648.88 388.11 651.39 382.98 653.57
  A 1.01 0.98 39.6 0 1 382.38 653.62
  Q 378.64 652.80 375.18 651.24
  C 371.95 649.78 369.80 650.15 366.58 650.78
  A 0.98 0.97 -36.0 0 1 365.92 650.68
  C 360.26 647.62 357.20 641.58 352.62 637.21
  Q 350.99 635.65 350.30 633.71
  Q 343.51 614.76 340.42 596.02
  Q 340.02 593.54 340.80 591.28
  Q 341.69 588.72 339.98 586.91
  A 1.01 1.01 0.0 0 1 339.76 585.90
  Q 341.98 579.38 340.28 572.63
  A 0.99 0.99 0.0 0 1 340.38 571.89
  C 341.74 569.51 340.76 567.51 341.96 565.24
  A 0.98 0.97 54.0 0 0 342.06 564.58
  Q 340.30 555.45 343.07 546.50
  C 344.06 543.33 342.43 537.74 343.94 533.62
  Q 346.19 527.50 345.67 521.05
  Q 345.43 518.22 345.92 516.01
  Q 349.05 501.68 350.71 482.99
  Q 350.91 480.64 350.74 479.46
  A 1.00 0.99 65.7 0 1 351.08 478.54
  Q 351.65 478.06 352.08 477.48
  Q 353.60 475.40 351.69 477.13
  Z"
/>
<path fill="#4d7e3e" d="
  M 701.83 540.08
  C 693.52 533.67 691.29 524.16 690.35 513.28
  A 1.06 1.05 57.9 0 1 690.48 512.70
  Q 693.97 506.45 696.00 499.57
  A 0.98 0.97 86.8 0 1 696.56 498.94
  L 700.58 497.20
  A 1.03 1.00 83.1 0 0 701.17 496.43
  C 701.59 493.78 702.07 491.70 704.24 489.79
  Q 712.25 482.73 718.11 473.79
  A 1.05 1.03 5.2 0 1 718.56 473.42
  C 725.90 470.29 727.97 461.43 736.14 460.25
  A 1.04 1.01 -71.2 0 0 736.71 459.96
  C 739.61 457.05 744.20 455.48 746.10 451.99
  A 1.02 1.00 -81.7 0 1 746.76 451.49
  Q 753.98 449.92 761.23 445.68
  Q 766.21 442.77 772.36 443.73
  A 1.09 1.07 72.2 0 1 772.93 444.03
  C 776.07 447.27 775.80 453.50 776.46 460.19
  A 1.06 0.96 -36.0 0 1 776.34 460.77
  C 774.01 464.99 771.34 470.67 766.52 472.45
  A 1.09 1.02 -44.1 0 1 765.87 472.46
  L 761.11 470.95
  A 0.98 0.96 -54.7 0 0 760.19 471.12
  L 757.33 473.38
  A 1.01 1.01 0.0 0 1 756.54 473.59
  Q 754.45 473.24 753.27 474.93
  A 0.96 0.96 0.0 0 0 753.10 475.66
  Q 753.30 476.92 752.18 477.15
  C 745.74 478.48 742.43 482.59 736.46 488.46
  Q 735.27 489.64 731.97 490.20
  A 1.00 0.98 10.0 0 0 731.29 490.67
  C 726.59 498.37 719.95 503.16 715.02 511.19
  A 1.00 0.97 56.5 0 0 714.89 511.89
  L 716.20 519.19
  A 0.97 0.96 -72.4 0 0 716.47 519.72
  C 719.34 522.65 723.36 526.67 727.55 527.33
  C 732.99 528.18 738.77 531.55 744.73 529.58
  A 1.10 1.06 -46.1 0 1 745.27 529.56
  Q 757.01 532.28 769.00 533.01
  Q 774.36 533.33 777.87 534.42
  C 792.72 539.02 811.10 548.79 808.92 567.59
  C 808.51 571.14 806.10 573.42 805.95 577.53
  A 1.02 0.99 72.1 0 1 805.59 578.26
  Q 801.63 581.62 798.91 586.07
  Q 797.74 587.99 796.14 589.00
  C 777.93 600.49 757.49 607.74 736.18 607.65
  A 1.02 1.01 -20.9 0 1 735.43 607.32
  C 734.23 605.96 731.34 602.24 729.62 602.06
  Q 729.02 601.99 728.44 602.10
  A 1.00 1.00 0.0 0 1 727.25 601.22
  Q 726.80 596.44 726.01 591.76
  Q 725.68 589.76 726.85 586.94
  A 1.00 1.00 0.0 0 1 727.76 586.32
  C 731.45 586.25 737.99 584.77 741.82 586.82
  A 1.07 1.06 57.4 0 0 742.35 586.94
  C 756.81 586.21 769.84 580.46 782.66 575.71
  Q 784.76 574.93 785.48 572.24
  L 787.28 565.48
  A 1.02 1.01 -62.3 0 0 786.97 564.46
  C 780.25 558.66 773.43 555.50 764.29 556.02
  A 0.99 0.99 0.0 0 1 763.73 555.89
  C 757.17 551.99 746.85 552.46 741.82 551.18
  Q 739.13 550.50 737.59 551.86
  A 1.01 1.00 -51.8 0 1 736.46 552.00
  C 733.98 550.70 731.91 549.51 729.02 549.18
  C 719.98 548.17 710.26 543.16 702.10 540.23
  Q 701.95 540.18 701.83 540.08
  Z"
/>
<path fill="#4d7e3e" d="
  M 574.35 550.22
  L 573.06 552.75
  A 1.00 1.00 0.0 0 1 571.98 553.28
  Q 568.01 552.53 566.50 556.27
  A 1.01 1.00 -87.3 0 1 565.87 556.85
  C 556.50 559.78 548.67 565.05 539.86 569.27
  Q 538.02 570.14 536.11 572.02
  Q 534.29 573.79 532.07 575.19
  A 0.99 0.98 -52.4 0 1 531.24 575.30
  L 528.28 574.37
  A 0.99 0.97 38.0 0 0 527.47 574.46
  Q 518.00 580.13 507.03 578.09
  C 505.66 577.83 504.41 577.97 504.29 579.60
  A 1.01 1.00 -87.2 0 1 503.28 580.52
  C 500.17 580.51 496.68 579.28 493.79 579.76
  A 1.03 0.99 52.3 0 1 493.19 579.67
  C 484.29 575.41 483.40 570.59 477.87 562.91
  C 473.00 556.14 472.43 543.64 473.52 535.49
  Q 474.91 525.06 475.85 514.57
  C 476.25 510.07 479.08 504.56 478.73 499.82
  C 478.44 495.84 478.56 492.08 477.92 488.11
  C 477.23 483.84 482.07 479.71 476.50 476.43
  A 1.00 1.00 0.0 0 1 476.00 475.53
  Q 476.13 471.95 473.61 469.42
  A 1.00 0.99 21.1 0 1 473.32 468.77
  C 472.82 459.74 478.96 455.44 486.19 451.91
  A 1.02 1.01 83.6 0 0 486.72 451.24
  L 486.81 450.84
  A 1.01 1.01 0.0 0 1 488.18 450.15
  Q 491.46 451.55 494.92 450.64
  A 1.01 1.00 -23.2 0 1 496.03 451.08
  C 497.59 453.62 500.04 453.57 502.62 454.53
  A 1.01 1.00 12.0 0 1 503.27 455.52
  Q 502.92 462.68 506.11 469.08
  A 0.99 0.96 -49.3 0 1 506.16 469.87
  C 503.46 477.26 508.29 488.24 502.67 495.71
  A 1.01 0.95 -27.4 0 0 502.46 496.31
  C 502.46 503.14 502.28 513.81 499.40 518.88
  C 496.17 524.57 498.21 542.30 499.21 549.00
  C 500.61 558.47 511.69 558.88 518.03 554.57
  A 1.00 1.00 0.0 0 1 519.40 554.81
  L 520.38 556.16
  A 1.00 0.99 62.2 0 0 521.53 556.52
  Q 544.85 547.90 567.31 537.26
  A 1.02 1.00 -50.5 0 1 567.97 537.19
  Q 572.34 538.24 576.71 537.06
  A 1.00 1.00 0.0 0 0 577.44 536.20
  L 577.85 532.34
  A 1.02 0.94 38.5 0 0 577.77 531.83
  C 576.10 528.11 575.22 524.49 577.09 520.54
  C 579.05 516.40 582.70 509.84 582.49 505.27
  Q 581.82 490.80 581.67 476.31
  A 1.03 1.03 0.0 0 1 582.09 475.48
  Q 584.14 474.04 585.46 471.87
  A 0.99 0.98 -80.6 0 1 586.10 471.41
  Q 589.48 470.69 592.95 471.06
  A 1.00 0.99 16.5 0 0 593.94 470.53
  L 595.76 467.01
  A 1.04 1.02 -87.0 0 1 596.25 466.56
  C 597.75 465.91 599.42 465.44 600.77 464.59
  C 609.87 458.88 616.49 455.72 626.75 454.57
  A 1.01 1.00 -75.2 0 0 627.45 454.16
  C 628.28 453.02 629.13 452.48 630.64 452.84
  Q 638.53 454.69 646.23 452.66
  Q 649.56 451.78 652.01 451.76
  C 665.00 451.65 677.48 450.84 690.92 452.83
  Q 693.20 453.17 696.59 452.89
  C 700.11 452.60 703.84 453.90 707.10 453.43
  A 1.00 1.00 0.0 0 1 708.19 454.10
  L 710.24 460.21
  A 1.02 1.01 -36.8 0 1 710.11 461.09
  L 708.34 463.68
  A 0.98 0.97 -79.7 0 1 707.77 464.08
  C 703.82 465.14 700.37 466.71 696.24 466.51
  C 686.43 466.05 676.69 466.76 666.86 466.80
  Q 665.00 466.80 663.02 467.73
  Q 656.19 470.94 648.58 469.64
  A 0.96 0.95 38.3 0 0 648.04 469.70
  C 638.65 473.52 629.18 475.95 619.42 478.62
  Q 611.71 480.72 605.15 485.24
  A 1.02 1.00 78.6 0 0 604.74 485.87
  Q 602.71 496.33 604.99 506.68
  A 1.00 0.98 87.1 0 0 605.84 507.46
  L 611.40 508.12
  A 1.00 0.98 23.6 0 0 612.26 507.79
  Q 613.81 506.03 616.75 506.22
  C 624.21 506.70 631.29 506.08 639.98 504.69
  C 647.68 503.45 656.00 504.01 663.22 500.89
  A 1.01 0.96 -49.2 0 1 663.83 500.83
  C 667.03 501.50 673.70 501.22 675.95 503.17
  C 680.72 507.32 675.92 513.21 672.78 518.02
  A 1.00 1.00 0.0 0 1 671.91 518.47
  Q 664.95 518.24 661.30 519.51
  C 648.90 523.83 641.49 526.71 632.78 527.32
  A 1.01 1.00 6.3 0 0 631.89 528.03
  L 631.68 528.73
  A 1.00 0.99 8.4 0 1 630.71 529.44
  C 622.17 529.37 614.43 531.67 605.77 531.09
  A 1.03 1.02 -65.4 0 0 605.01 531.38
  L 603.77 532.61
  Q 603.58 532.79 603.32 532.86
  Q 598.44 534.15 598.89 540.18
  Q 599.35 546.31 597.09 553.45
  A 1.00 0.99 8.9 0 0 598.04 554.75
  L 598.45 554.75
  A 1.01 1.00 -0.3 0 1 599.46 555.74
  C 599.49 559.01 598.77 562.50 598.85 565.26
  C 599.12 575.66 603.60 590.38 616.50 590.24
  Q 622.91 590.17 626.99 585.09
  A 1.01 1.01 0.0 0 1 627.86 584.73
  L 631.59 585.06
  A 1.03 1.01 29.4 0 0 632.26 584.88
  C 637.34 581.25 642.25 575.88 647.88 573.36
  A 1.00 0.98 -89.0 0 0 648.39 572.86
  C 650.23 568.77 651.60 565.30 654.58 563.20
  A 1.01 1.00 72.4 0 0 655.00 562.38
  L 655.00 557.40
  A 1.02 1.02 0.0 0 1 655.26 556.72
  C 657.36 554.45 660.95 551.91 662.66 548.80
  A 1.00 1.00 0.0 0 1 663.80 548.32
  Q 667.23 549.24 670.66 548.27
  A 1.02 1.01 70.0 0 1 671.85 548.83
  L 675.93 557.94
  A 1.00 0.99 -44.7 0 1 675.92 558.78
  C 670.64 570.00 664.89 582.33 656.77 591.75
  C 653.78 595.21 649.04 597.33 645.55 600.75
  Q 643.81 602.45 641.77 603.30
  Q 631.59 607.54 622.15 613.29
  A 1.00 0.98 33.2 0 1 621.50 613.42
  Q 614.32 612.46 607.18 613.67
  A 0.99 0.98 -37.0 0 1 606.57 613.59
  L 603.05 611.85
  A 1.00 0.99 13.6 0 1 602.49 610.94
  L 602.50 610.57
  A 0.64 0.63 -87.6 0 0 601.91 609.92
  C 584.72 608.67 579.76 589.69 575.10 575.81
  A 1.00 0.98 -32.2 0 1 575.34 574.79
  L 576.38 573.74
  A 1.00 1.00 0.0 0 0 576.63 572.75
  Q 574.40 565.24 575.74 556.49
  Q 576.11 554.07 575.86 550.53
  Q 575.66 547.65 574.35 550.22
  Z"
/>
<path fill="#4d7e3e" d="
  M 420.27 463.96
  L 420.57 461.76
  A 1.01 1.00 -9.8 0 1 421.11 461.00
  C 426.38 458.34 435.06 461.08 436.64 467.22
  Q 439.10 476.79 438.39 486.74
  C 437.45 500.00 435.94 513.17 434.80 526.42
  Q 433.81 537.95 437.93 548.72
  Q 438.57 550.40 439.66 548.96
  Q 440.59 547.73 442.06 548.07
  A 1.02 1.01 88.9 0 1 442.79 548.78
  Q 444.89 556.33 449.25 562.84
  A 1.01 1.01 0.0 0 1 449.16 564.07
  L 444.10 569.71
  A 1.01 1.00 -64.1 0 1 443.19 570.03
  Q 437.71 569.13 432.45 570.43
  A 1.01 1.00 63.8 0 1 431.43 570.08
  Q 429.48 567.64 426.25 567.75
  A 1.01 1.01 0.0 0 1 425.44 567.37
  C 422.44 563.64 415.41 555.28 415.21 550.59
  C 414.80 540.86 412.17 532.45 413.50 524.10
  C 415.93 508.87 420.57 491.70 416.30 476.40
  A 1.09 1.00 -46.4 0 1 416.31 475.85
  L 418.01 469.90
  A 1.01 0.97 37.8 0 0 417.89 469.08
  Q 415.82 465.90 419.56 464.78
  A 1.00 1.00 0.0 0 0 420.27 463.96
  Z"
/>
</svg>
